solid walletv1
facet normal 0.0 0.0 1.0
  outer loop
    vertex 103.7854748254589 23.875032999993827 17.300000190731826
    vertex 101.7854748254589 31.375032999993827 17.300000190731826
    vertex 101.7854748254589 23.875032999993827 17.300000190731826
  endloop
endfacet
facet normal 0.0 0.0 1.0
  outer loop
    vertex 101.7854748254589 31.375032999993827 17.300000190731826
    vertex 103.7854748254589 23.875032999993827 17.300000190731826
    vertex 103.7854748254589 31.375032999993827 17.300000190731826
  endloop
endfacet
facet normal 1.0 0.0 0.0
  outer loop
    vertex 103.7854748254589 31.375032999993827 5.300000190731824
    vertex 103.7854748254589 23.875032999993827 17.300000190731826
    vertex 103.7854748254589 23.875032999993827 5.300000190731824
  endloop
endfacet
facet normal 1.0 0.0 0.0
  outer loop
    vertex 103.7854748254589 23.875032999993827 17.300000190731826
    vertex 103.7854748254589 31.375032999993827 5.300000190731824
    vertex 103.7854748254589 31.375032999993827 17.300000190731826
  endloop
endfacet
facet normal -1.0 0.0 0.0
  outer loop
    vertex 101.7854748254589 31.375032999993827 17.300000190731826
    vertex 101.7854748254589 23.875032999993827 5.300000190731824
    vertex 101.7854748254589 23.875032999993827 17.300000190731826
  endloop
endfacet
facet normal -1.0 0.0 0.0
  outer loop
    vertex 101.7854748254589 23.875032999993827 5.300000190731824
    vertex 101.7854748254589 31.375032999993827 17.300000190731826
    vertex 101.7854748254589 31.375032999993827 5.300000190731824
  endloop
endfacet
facet normal 0.0 1.0 0.0
  outer loop
    vertex 101.7854748254589 31.375032999993827 17.300000190731826
    vertex 103.7854748254589 31.375032999993827 5.300000190731824
    vertex 101.7854748254589 31.375032999993827 5.300000190731824
  endloop
endfacet
facet normal 0.0 1.0 0.0
  outer loop
    vertex 103.7854748254589 31.375032999993827 5.300000190731824
    vertex 101.7854748254589 31.375032999993827 17.300000190731826
    vertex 103.7854748254589 31.375032999993827 17.300000190731826
  endloop
endfacet
facet normal 0.0 0.0 1.0
  outer loop
    vertex 111.2854748254589 21.875032999993827 17.300000190731826
    vertex 103.7854748254589 23.875032999993827 17.300000190731826
    vertex 103.7854748254589 21.875032999993827 17.300000190731826
  endloop
endfacet
facet normal 0.0 0.0 1.0
  outer loop
    vertex 103.7854748254589 23.875032999993827 17.300000190731826
    vertex 111.2854748254589 21.875032999993827 17.300000190731826
    vertex 111.2854748254589 23.875032999993827 17.300000190731826
  endloop
endfacet
facet normal 0.0 0.0 1.0
  outer loop
    vertex 103.7854748254589 21.875032999993827 17.300000190731826
    vertex 101.7854748254589 23.875032999993827 17.300000190731826
    vertex 101.7854748254589 21.875032999993827 17.300000190731826
  endloop
endfacet
facet normal 0.0 0.0 1.0
  outer loop
    vertex 101.7854748254589 23.875032999993827 17.300000190731826
    vertex 103.7854748254589 21.875032999993827 17.300000190731826
    vertex 103.7854748254589 23.875032999993827 17.300000190731826
  endloop
endfacet
facet normal 1.0 0.0 0.0
  outer loop
    vertex 111.2854748254589 23.875032999993827 5.300000190731824
    vertex 111.2854748254589 21.875032999993827 17.300000190731826
    vertex 111.2854748254589 21.875032999993827 5.300000190731824
  endloop
endfacet
facet normal 1.0 0.0 0.0
  outer loop
    vertex 111.2854748254589 21.875032999993827 17.300000190731826
    vertex 111.2854748254589 23.875032999993827 5.300000190731824
    vertex 111.2854748254589 23.875032999993827 17.300000190731826
  endloop
endfacet
facet normal 0.0 1.0 0.0
  outer loop
    vertex 103.7854748254589 23.875032999993827 17.300000190731826
    vertex 111.2854748254589 23.875032999993827 5.300000190731824
    vertex 103.7854748254589 23.875032999993827 5.300000190731824
  endloop
endfacet
facet normal 0.0 1.0 0.0
  outer loop
    vertex 111.2854748254589 23.875032999993827 5.300000190731824
    vertex 103.7854748254589 23.875032999993827 17.300000190731826
    vertex 111.2854748254589 23.875032999993827 17.300000190731826
  endloop
endfacet
facet normal 0.0 -1.0 0.0
  outer loop
    vertex 103.7854748254589 21.875032999993827 17.300000190731826
    vertex 101.7854748254589 21.875032999993827 5.300000190731824
    vertex 103.7854748254589 21.875032999993827 5.300000190731824
  endloop
endfacet
facet normal 0.0 -1.0 0.0
  outer loop
    vertex 101.7854748254589 21.875032999993827 5.300000190731824
    vertex 103.7854748254589 21.875032999993827 17.300000190731826
    vertex 101.7854748254589 21.875032999993827 17.300000190731826
  endloop
endfacet
facet normal 0.0 -1.0 0.0
  outer loop
    vertex 111.2854748254589 21.875032999993827 17.300000190731826
    vertex 103.7854748254589 21.875032999993827 5.300000190731824
    vertex 111.2854748254589 21.875032999993827 5.300000190731824
  endloop
endfacet
facet normal 0.0 -1.0 0.0
  outer loop
    vertex 103.7854748254589 21.875032999993827 5.300000190731824
    vertex 111.2854748254589 21.875032999993827 17.300000190731826
    vertex 103.7854748254589 21.875032999993827 17.300000190731826
  endloop
endfacet
facet normal -1.0 0.0 0.0
  outer loop
    vertex 101.7854748254589 23.875032999993827 17.300000190731826
    vertex 101.7854748254589 21.875032999993827 5.300000190731824
    vertex 101.7854748254589 21.875032999993827 17.300000190731826
  endloop
endfacet
facet normal -1.0 0.0 0.0
  outer loop
    vertex 101.7854748254589 21.875032999993827 5.300000190731824
    vertex 101.7854748254589 23.875032999993827 17.300000190731826
    vertex 101.7854748254589 23.875032999993827 5.300000190731824
  endloop
endfacet
facet normal 0.0 0.0 1.0
  outer loop
    vertex 103.78547482544613 103.87503299999511 17.3000001907428
    vertex 111.28547482544614 105.87503299999511 17.3000001907428
    vertex 103.78547482544613 105.87503299999511 17.3000001907428
  endloop
endfacet
facet normal 0.0 0.0 1.0
  outer loop
    vertex 111.28547482544614 105.87503299999511 17.3000001907428
    vertex 103.78547482544613 103.87503299999511 17.3000001907428
    vertex 111.28547482544614 103.87503299999511 17.3000001907428
  endloop
endfacet
facet normal 1.1726730697603216e-15 -1.0 0.0
  outer loop
    vertex 111.28547482544614 103.87503299999511 5.3000001907428
    vertex 103.78547482544613 103.87503299999511 17.3000001907428
    vertex 103.78547482544613 103.87503299999511 5.3000001907428
  endloop
endfacet
facet normal 1.1726730697603216e-15 -1.0 0.0
  outer loop
    vertex 103.78547482544613 103.87503299999511 17.3000001907428
    vertex 111.28547482544614 103.87503299999511 5.3000001907428
    vertex 111.28547482544614 103.87503299999511 17.3000001907428
  endloop
endfacet
facet normal -1.1726730697603216e-15 1.0 0.0
  outer loop
    vertex 111.28547482544614 105.87503299999511 17.3000001907428
    vertex 103.78547482544613 105.87503299999511 5.3000001907428
    vertex 103.78547482544613 105.87503299999511 17.3000001907428
  endloop
endfacet
facet normal -1.1726730697603216e-15 1.0 0.0
  outer loop
    vertex 103.78547482544613 105.87503299999511 5.3000001907428
    vertex 111.28547482544614 105.87503299999511 17.3000001907428
    vertex 111.28547482544614 105.87503299999511 5.3000001907428
  endloop
endfacet
facet normal 1.0 1.1726730697603216e-15 0.0
  outer loop
    vertex 111.28547482544614 105.87503299999511 17.3000001907428
    vertex 111.28547482544614 103.87503299999511 5.3000001907428
    vertex 111.28547482544614 105.87503299999511 5.3000001907428
  endloop
endfacet
facet normal 1.0 1.1726730697603216e-15 0.0
  outer loop
    vertex 111.28547482544614 103.87503299999511 5.3000001907428
    vertex 111.28547482544614 105.87503299999511 17.3000001907428
    vertex 111.28547482544614 103.87503299999511 17.3000001907428
  endloop
endfacet
facet normal 0.0 0.0 1.0
  outer loop
    vertex 101.78547482544613 96.3750329999951 17.3000001907428
    vertex 103.78547482544613 103.87503299999511 17.3000001907428
    vertex 101.78547482544613 103.87503299999511 17.3000001907428
  endloop
endfacet
facet normal 0.0 0.0 1.0
  outer loop
    vertex 103.78547482544613 103.87503299999511 17.3000001907428
    vertex 101.78547482544613 96.3750329999951 17.3000001907428
    vertex 103.78547482544616 96.3750329999951 17.3000001907428
  endloop
endfacet
facet normal 0.0 0.0 1.0
  outer loop
    vertex 101.78547482544613 103.87503299999511 17.3000001907428
    vertex 103.78547482544613 105.87503299999511 17.3000001907428
    vertex 101.78547482544613 105.87503299999511 17.3000001907428
  endloop
endfacet
facet normal 0.0 0.0 1.0
  outer loop
    vertex 103.78547482544613 105.87503299999511 17.3000001907428
    vertex 101.78547482544613 103.87503299999511 17.3000001907428
    vertex 103.78547482544613 103.87503299999511 17.3000001907428
  endloop
endfacet
facet normal 1.1726730697603216e-15 -1.0 0.0
  outer loop
    vertex 103.78547482544616 96.3750329999951 5.3000001907428
    vertex 101.78547482544613 96.3750329999951 17.3000001907428
    vertex 101.78547482544613 96.3750329999951 5.3000001907428
  endloop
endfacet
facet normal 1.1726730697603216e-15 -1.0 0.0
  outer loop
    vertex 101.78547482544613 96.3750329999951 17.3000001907428
    vertex 103.78547482544616 96.3750329999951 5.3000001907428
    vertex 103.78547482544616 96.3750329999951 17.3000001907428
  endloop
endfacet
facet normal 1.0 1.1726730697603216e-15 0.0
  outer loop
    vertex 103.78547482544613 103.87503299999511 17.3000001907428
    vertex 103.78547482544616 96.3750329999951 5.3000001907428
    vertex 103.78547482544613 103.87503299999511 5.3000001907428
  endloop
endfacet
facet normal 1.0 1.1726730697603216e-15 0.0
  outer loop
    vertex 103.78547482544616 96.3750329999951 5.3000001907428
    vertex 103.78547482544613 103.87503299999511 17.3000001907428
    vertex 103.78547482544616 96.3750329999951 17.3000001907428
  endloop
endfacet
facet normal -1.0 -1.1726730697603216e-15 0.0
  outer loop
    vertex 101.78547482544613 103.87503299999511 17.3000001907428
    vertex 101.78547482544613 105.87503299999511 5.3000001907428
    vertex 101.78547482544613 103.87503299999511 5.3000001907428
  endloop
endfacet
facet normal -1.0 -1.1726730697603216e-15 0.0
  outer loop
    vertex 101.78547482544613 105.87503299999511 5.3000001907428
    vertex 101.78547482544613 103.87503299999511 17.3000001907428
    vertex 101.78547482544613 105.87503299999511 17.3000001907428
  endloop
endfacet
facet normal -1.0 -1.1726730697603216e-15 0.0
  outer loop
    vertex 101.78547482544613 96.3750329999951 17.3000001907428
    vertex 101.78547482544613 103.87503299999511 5.3000001907428
    vertex 101.78547482544613 96.3750329999951 5.3000001907428
  endloop
endfacet
facet normal -1.0 -1.1726730697603216e-15 0.0
  outer loop
    vertex 101.78547482544613 103.87503299999511 5.3000001907428
    vertex 101.78547482544613 96.3750329999951 17.3000001907428
    vertex 101.78547482544613 103.87503299999511 17.3000001907428
  endloop
endfacet
facet normal -1.1726730697603216e-15 1.0 0.0
  outer loop
    vertex 103.78547482544613 105.87503299999511 17.3000001907428
    vertex 101.78547482544613 105.87503299999511 5.3000001907428
    vertex 101.78547482544613 105.87503299999511 17.3000001907428
  endloop
endfacet
facet normal -1.1726730697603216e-15 1.0 0.0
  outer loop
    vertex 101.78547482544613 105.87503299999511 5.3000001907428
    vertex 103.78547482544613 105.87503299999511 17.3000001907428
    vertex 103.78547482544613 105.87503299999511 5.3000001907428
  endloop
endfacet
facet normal 0.0 0.0 1.0
  outer loop
    vertex 111.28547482544614 96.3750329999951 17.3000001907428
    vertex 103.78547482544616 103.87503299999511 17.3000001907428
    vertex 103.78547482544616 96.3750329999951 17.3000001907428
  endloop
endfacet
facet normal 0.0 0.0 1.0
  outer loop
    vertex 103.78547482544616 103.87503299999511 17.3000001907428
    vertex 111.28547482544614 96.3750329999951 17.3000001907428
    vertex 111.28547482544614 103.87503299999511 17.3000001907428
  endloop
endfacet
facet normal -0.0 -0.0 -1.0
  outer loop
    vertex 111.28547482544614 103.87503299999511 15.8000001907428
    vertex 103.78547482544616 96.3750329999951 15.8000001907428
    vertex 103.78547482544616 103.87503299999511 15.8000001907428
  endloop
endfacet
facet normal -0.0 -0.0 -1.0
  outer loop
    vertex 103.78547482544616 96.3750329999951 15.8000001907428
    vertex 111.28547482544614 103.87503299999511 15.8000001907428
    vertex 111.28547482544614 96.3750329999951 15.8000001907428
  endloop
endfacet
facet normal -1.0 -0.0 -0.0
  outer loop
    vertex 103.78547482544616 103.87503299999511 17.3000001907428
    vertex 103.78547482544616 96.3750329999951 15.8000001907428
    vertex 103.78547482544616 96.3750329999951 17.3000001907428
  endloop
endfacet
facet normal -1.0 -0.0 -0.0
  outer loop
    vertex 103.78547482544616 96.3750329999951 15.8000001907428
    vertex 103.78547482544616 103.87503299999511 17.3000001907428
    vertex 103.78547482544616 103.87503299999511 15.8000001907428
  endloop
endfacet
facet normal 0.0 -1.0 0.0
  outer loop
    vertex 111.28547482544614 96.3750329999951 17.3000001907428
    vertex 103.78547482544616 96.3750329999951 15.8000001907428
    vertex 111.28547482544614 96.3750329999951 15.8000001907428
  endloop
endfacet
facet normal 0.0 -1.0 0.0
  outer loop
    vertex 103.78547482544616 96.3750329999951 15.8000001907428
    vertex 111.28547482544614 96.3750329999951 17.3000001907428
    vertex 103.78547482544616 96.3750329999951 17.3000001907428
  endloop
endfacet
facet normal 1.0 0.0 0.0
  outer loop
    vertex 111.28547482544614 103.87503299999511 15.8000001907428
    vertex 111.28547482544614 96.3750329999951 17.3000001907428
    vertex 111.28547482544614 96.3750329999951 15.8000001907428
  endloop
endfacet
facet normal 1.0 0.0 0.0
  outer loop
    vertex 111.28547482544614 96.3750329999951 17.3000001907428
    vertex 111.28547482544614 103.87503299999511 15.8000001907428
    vertex 111.28547482544614 103.87503299999511 17.3000001907428
  endloop
endfacet
facet normal 0.0 1.0 0.0
  outer loop
    vertex 103.78547482544616 103.87503299999511 17.3000001907428
    vertex 111.28547482544614 103.87503299999511 15.8000001907428
    vertex 103.78547482544616 103.87503299999511 15.8000001907428
  endloop
endfacet
facet normal 0.0 1.0 0.0
  outer loop
    vertex 111.28547482544614 103.87503299999511 15.8000001907428
    vertex 103.78547482544616 103.87503299999511 17.3000001907428
    vertex 111.28547482544614 103.87503299999511 17.3000001907428
  endloop
endfacet
facet normal -0.0 -1.0 -0.0
  outer loop
    vertex 143.78547482544005 96.37503299999378 17.300000190731826
    vertex 136.28547482544005 96.37503299999378 15.800000190731824
    vertex 143.78547482544005 96.37503299999378 15.800000190731824
  endloop
endfacet
facet normal -0.0 -1.0 -0.0
  outer loop
    vertex 136.28547482544005 96.37503299999378 15.800000190731824
    vertex 143.78547482544005 96.37503299999378 17.300000190731826
    vertex 136.28547482544005 96.37503299999378 17.300000190731826
  endloop
endfacet
facet normal 1.0 0.0 0.0
  outer loop
    vertex 143.78547482544005 103.87503299999376 15.800000190731824
    vertex 143.78547482544005 96.37503299999378 17.300000190731826
    vertex 143.78547482544005 96.37503299999378 15.800000190731824
  endloop
endfacet
facet normal 1.0 0.0 0.0
  outer loop
    vertex 143.78547482544005 96.37503299999378 17.300000190731826
    vertex 143.78547482544005 103.87503299999376 15.800000190731824
    vertex 143.78547482544005 103.87503299999376 17.300000190731826
  endloop
endfacet
facet normal -1.0 0.0 0.0
  outer loop
    vertex 136.28547482544005 103.87503299999376 17.300000190731826
    vertex 136.28547482544005 96.37503299999378 15.800000190731824
    vertex 136.28547482544005 96.37503299999378 17.300000190731826
  endloop
endfacet
facet normal -1.0 0.0 0.0
  outer loop
    vertex 136.28547482544005 96.37503299999378 15.800000190731824
    vertex 136.28547482544005 103.87503299999376 17.300000190731826
    vertex 136.28547482544005 103.87503299999376 15.800000190731824
  endloop
endfacet
facet normal 0.0 1.0 0.0
  outer loop
    vertex 136.28547482544005 103.87503299999376 17.300000190731826
    vertex 143.78547482544005 103.87503299999376 15.800000190731824
    vertex 136.28547482544005 103.87503299999376 15.800000190731824
  endloop
endfacet
facet normal 0.0 1.0 0.0
  outer loop
    vertex 143.78547482544005 103.87503299999376 15.800000190731824
    vertex 136.28547482544005 103.87503299999376 17.300000190731826
    vertex 143.78547482544005 103.87503299999376 17.300000190731826
  endloop
endfacet
facet normal 0.0 0.0 1.0
  outer loop
    vertex 143.78547482544005 96.37503299999378 17.300000190731826
    vertex 136.28547482544005 103.87503299999376 17.300000190731826
    vertex 136.28547482544005 96.37503299999378 17.300000190731826
  endloop
endfacet
facet normal 0.0 0.0 1.0
  outer loop
    vertex 136.28547482544005 103.87503299999376 17.300000190731826
    vertex 143.78547482544005 96.37503299999378 17.300000190731826
    vertex 143.78547482544005 103.87503299999376 17.300000190731826
  endloop
endfacet
facet normal -5.063033325924946e-13 -5.06303332592495e-13 1.0
  outer loop
    vertex 143.78547482544005 103.87503299999378 17.30000019073562
    vertex 145.78547482544005 96.37503299999378 17.30000019073284
    vertex 145.78547482544005 103.87503299999378 17.300000190736636
  endloop
endfacet
facet normal -5.063033325924946e-13 -5.06303332592495e-13 1.0
  outer loop
    vertex 145.78547482544005 96.37503299999378 17.30000019073284
    vertex 143.78547482544005 103.87503299999378 17.30000019073562
    vertex 143.78547482544005 96.37503299999378 17.300000190731826
  endloop
endfacet
facet normal -1.0 -5.828670879217332e-16 -5.063033325924949e-13
  outer loop
    vertex 143.78547482544613 96.37503299999985 5.300000190731824
    vertex 143.78547482544005 103.87503299999378 17.30000019073562
    vertex 143.78547482544613 103.87503299999985 5.300000190735621
  endloop
endfacet
facet normal -1.0 -5.828670879217332e-16 -5.063033325924949e-13
  outer loop
    vertex 143.78547482544005 103.87503299999378 17.30000019073562
    vertex 143.78547482544613 96.37503299999985 5.300000190731824
    vertex 143.78547482544005 96.37503299999378 17.300000190731826
  endloop
endfacet
facet normal 1.0 5.828670879217332e-16 5.063033325924949e-13
  outer loop
    vertex 145.78547482544005 96.37503299999378 17.30000019073284
    vertex 145.78547482544613 103.87503299999985 5.300000190736633
    vertex 145.78547482544005 103.87503299999378 17.300000190736636
  endloop
endfacet
facet normal 1.0 5.828670879217332e-16 5.063033325924949e-13
  outer loop
    vertex 145.78547482544613 103.87503299999985 5.300000190736633
    vertex 145.78547482544005 96.37503299999378 17.30000019073284
    vertex 145.78547482544613 96.37503299999985 5.300000190732836
  endloop
endfacet
facet normal 5.828670881780763e-16 -1.0 -5.063033325924947e-13
  outer loop
    vertex 145.78547482544005 96.37503299999378 17.30000019073284
    vertex 143.78547482544613 96.37503299999985 5.300000190731824
    vertex 145.78547482544613 96.37503299999985 5.300000190732836
  endloop
endfacet
facet normal 5.828670881780763e-16 -1.0 -5.063033325924947e-13
  outer loop
    vertex 143.78547482544613 96.37503299999985 5.300000190731824
    vertex 145.78547482544005 96.37503299999378 17.30000019073284
    vertex 143.78547482544005 96.37503299999378 17.300000190731826
  endloop
endfacet
facet normal -5.063033325924946e-13 -5.06303332592495e-13 1.0
  outer loop
    vertex 136.28547482544005 105.87503299999375 17.30000019073284
    vertex 143.78547482544005 103.87503299999378 17.30000019073562
    vertex 143.78547482544005 105.87503299999378 17.300000190736636
  endloop
endfacet
facet normal -5.063033325924946e-13 -5.06303332592495e-13 1.0
  outer loop
    vertex 143.78547482544005 103.87503299999378 17.30000019073562
    vertex 136.28547482544005 105.87503299999375 17.30000019073284
    vertex 136.28547482544005 103.87503299999376 17.300000190731826
  endloop
endfacet
facet normal -5.063033325924946e-13 -5.06303332592495e-13 1.0
  outer loop
    vertex 143.78547482544005 105.87503299999378 17.300000190736636
    vertex 145.78547482544005 103.87503299999378 17.300000190736636
    vertex 145.78547482544005 105.87503299999378 17.300000190737645
  endloop
endfacet
facet normal -5.063033325924946e-13 -5.06303332592495e-13 1.0
  outer loop
    vertex 145.78547482544005 103.87503299999378 17.300000190736636
    vertex 143.78547482544005 105.87503299999378 17.300000190736636
    vertex 143.78547482544005 103.87503299999378 17.30000019073562
  endloop
endfacet
facet normal -1.0 -5.828670879217332e-16 -5.063033325924949e-13
  outer loop
    vertex 136.28547482544613 103.87503299999985 5.300000190731824
    vertex 136.28547482544005 105.87503299999375 17.30000019073284
    vertex 136.28547482544613 105.87503299999985 5.300000190732836
  endloop
endfacet
facet normal -1.0 -5.828670879217332e-16 -5.063033325924949e-13
  outer loop
    vertex 136.28547482544005 105.87503299999375 17.30000019073284
    vertex 136.28547482544613 103.87503299999985 5.300000190731824
    vertex 136.28547482544005 103.87503299999376 17.300000190731826
  endloop
endfacet
facet normal 5.828670881780763e-16 -1.0 -5.063033325924947e-13
  outer loop
    vertex 143.78547482544005 103.87503299999378 17.30000019073562
    vertex 136.28547482544613 103.87503299999985 5.300000190731824
    vertex 143.78547482544613 103.87503299999985 5.300000190735621
  endloop
endfacet
facet normal 5.828670881780763e-16 -1.0 -5.063033325924947e-13
  outer loop
    vertex 136.28547482544613 103.87503299999985 5.300000190731824
    vertex 143.78547482544005 103.87503299999378 17.30000019073562
    vertex 136.28547482544005 103.87503299999376 17.300000190731826
  endloop
endfacet
facet normal -5.828670881780763e-16 1.0 5.063033325924947e-13
  outer loop
    vertex 143.78547482544005 105.87503299999378 17.300000190736636
    vertex 145.78547482544613 105.87503299999985 5.300000190737646
    vertex 143.78547482544613 105.87503299999985 5.300000190736633
  endloop
endfacet
facet normal -5.828670881780763e-16 1.0 5.063033325924947e-13
  outer loop
    vertex 145.78547482544613 105.87503299999985 5.300000190737646
    vertex 143.78547482544005 105.87503299999378 17.300000190736636
    vertex 145.78547482544005 105.87503299999378 17.300000190737645
  endloop
endfacet
facet normal -5.828670881780763e-16 1.0 5.063033325924947e-13
  outer loop
    vertex 136.28547482544005 105.87503299999375 17.30000019073284
    vertex 143.78547482544613 105.87503299999985 5.300000190736633
    vertex 136.28547482544613 105.87503299999985 5.300000190732836
  endloop
endfacet
facet normal -5.828670881780763e-16 1.0 5.063033325924947e-13
  outer loop
    vertex 143.78547482544613 105.87503299999985 5.300000190736633
    vertex 136.28547482544005 105.87503299999375 17.30000019073284
    vertex 143.78547482544005 105.87503299999378 17.300000190736636
  endloop
endfacet
facet normal 1.0 5.828670879217332e-16 5.063033325924949e-13
  outer loop
    vertex 145.78547482544005 103.87503299999378 17.300000190736636
    vertex 145.78547482544613 105.87503299999985 5.300000190737646
    vertex 145.78547482544005 105.87503299999378 17.300000190737645
  endloop
endfacet
facet normal 1.0 5.828670879217332e-16 5.063033325924949e-13
  outer loop
    vertex 145.78547482544613 105.87503299999985 5.300000190737646
    vertex 145.78547482544005 103.87503299999378 17.300000190736636
    vertex 145.78547482544613 103.87503299999985 5.300000190736633
  endloop
endfacet
facet normal 0.7071067811865476 -0.7071067811865476 -3.5802863958379545e-13
  outer loop
    vertex 153.25639517320937 24.41074619579864 4.300000190733993
    vertex 154.97068197740862 26.125033000000037 0.0
    vertex 154.97068197740862 26.12503299999735 5.300000190734862
  endloop
endfacet
facet normal 0.7071067811865475 -0.7071067811865476 -3.5834291820136e-13
  outer loop
    vertex 153.25639517320937 24.41074619579864 4.300000190733993
    vertex 154.97068197740862 26.12503299999735 5.300000190734862
    vertex 148.97068197740862 20.12503299999735 5.300000190731825
  endloop
endfacet
facet normal 0.7071067811865476 -0.7071067811865476 -3.5801051981350113e-13
  outer loop
    vertex 148.97068197740862 20.12503299999786 4.300000190731823
    vertex 153.25639517320937 24.41074619579864 4.300000190733993
    vertex 148.97068197740862 20.12503299999735 5.300000190731825
  endloop
endfacet
facet normal 0.7071067811865476 -0.7071067811865476 -3.5801051981350113e-13
  outer loop
    vertex 153.25639517320937 24.41074619580082 -8.699596598660264e-13
    vertex 154.97068197740862 26.125033000000037 0.0
    vertex 153.25639517320937 24.41074619579864 4.300000190733993
  endloop
endfacet
facet normal 0.0 -5.063033325924948e-13 1.0
  outer loop
    vertex 135.97068197740862 75.12503299999736 5.300000190759671
    vertex 123.4706819774086 61.54828129101298 5.300000190752796
    vertex 135.97068197740862 65.12503299999734 5.300000190754607
  endloop
endfacet
facet normal 0.0 -5.063033325924948e-13 1.0
  outer loop
    vertex 135.97068197740862 65.12503299999734 5.300000190754607
    vertex 123.4706819774086 61.54828129101298 5.300000190752796
    vertex 135.69567282213518 33.02329502392313 5.300000190738356
  endloop
endfacet
facet normal 0.0 -5.063033325924948e-13 1.0
  outer loop
    vertex 150.9706819774086 30.125032999997355 5.300000190736886
    vertex 135.97068197740862 65.12503299999734 5.300000190754607
    vertex 135.69567282213518 33.02329502392313 5.300000190738356
  endloop
endfacet
facet normal 0.0 -5.063033325924948e-13 1.0
  outer loop
    vertex 150.9706819774086 30.125032999997355 5.300000190736886
    vertex 135.69567282213518 33.02329502392313 5.300000190738356
    vertex 148.97068197740862 20.12503299999735 5.300000190731825
  endloop
endfacet
facet normal 0.0 -5.063033325924948e-13 1.0
  outer loop
    vertex 154.97068197740862 26.12503299999735 5.300000190734862
    vertex 150.9706819774086 30.125032999997355 5.300000190736886
    vertex 148.97068197740862 20.12503299999735 5.300000190731825
  endloop
endfacet
facet normal 0.0 -5.063033325924948e-13 1.0
  outer loop
    vertex 150.9706819774086 105.21370945263406 5.300000190774906
    vertex 131.90818197740862 107.62503299999734 5.3000001907761245
    vertex 135.97068197740862 75.12503299999736 5.300000190759671
  endloop
endfacet
facet normal 0.0 -5.063033325924948e-13 1.0
  outer loop
    vertex 135.97068197740862 75.12503299999736 5.300000190759671
    vertex 131.90818197740862 107.62503299999734 5.3000001907761245
    vertex 115.0331819774086 107.62503299999734 5.3000001907761245
  endloop
endfacet
facet normal 0.0 -5.063033325924948e-13 1.0
  outer loop
    vertex 135.97068197740862 75.12503299999736 5.300000190759671
    vertex 115.0331819774086 107.62503299999734 5.3000001907761245
    vertex 110.9706819774086 75.12503299999736 5.300000190759671
  endloop
endfacet
facet normal 0.0 -5.063033325924948e-13 1.0
  outer loop
    vertex 115.0331819774086 107.62503299999734 5.3000001907761245
    vertex 95.97068197740862 105.21370945263406 5.300000190774906
    vertex 110.9706819774086 75.12503299999736 5.300000190759671
  endloop
endfacet
facet normal 0.0 -5.063033325924948e-13 1.0
  outer loop
    vertex 115.0331819774086 107.62503299999734 5.3000001907761245
    vertex 100.9706819774086 120.12503299999734 5.300000190782453
    vertex 95.97068197740862 105.21370945263406 5.300000190774906
  endloop
endfacet
facet normal 0.0 -5.063033325924948e-13 1.0
  outer loop
    vertex 100.9706819774086 120.12503299999734 5.300000190782453
    vertex 95.96745665087052 105.24607334423563 5.300000190774922
    vertex 95.97068197740862 105.21370945263406 5.300000190774906
  endloop
endfacet
facet normal 0.0 -5.063033325924948e-13 1.0
  outer loop
    vertex 100.9706819774086 120.12503299999734 5.300000190782453
    vertex 96.97068388475724 120.12503299999734 5.300000190782453
    vertex 95.96745665087052 105.24607334423563 5.300000190774922
  endloop
endfacet
facet normal 0.0 -5.063033325924948e-13 1.0
  outer loop
    vertex 96.97068388475724 120.12503299999734 5.300000190782453
    vertex 91.9706819774086 115.12503299999733 5.300000190779923
    vertex 95.96745665087052 105.24607334423563 5.300000190774922
  endloop
endfacet
facet normal 0.0 -5.063033325924948e-13 1.0
  outer loop
    vertex 150.9706819774086 105.21370945263406 5.300000190774906
    vertex 145.97068197740862 120.12503299999734 5.300000190782453
    vertex 131.90818197740862 107.62503299999734 5.3000001907761245
  endloop
endfacet
facet normal 0.0 -5.063033325924948e-13 1.0
  outer loop
    vertex 150.9739092112953 105.24607334423563 5.300000190774922
    vertex 145.97068197740862 120.12503299999734 5.300000190782453
    vertex 150.9706819774086 105.21370945263406 5.300000190774906
  endloop
endfacet
facet normal 0.0 -5.063033325924948e-13 1.0
  outer loop
    vertex 150.9739092112953 105.24607334423563 5.300000190774922
    vertex 149.97068007005998 120.12503299999734 5.300000190782453
    vertex 145.97068197740862 120.12503299999734 5.300000190782453
  endloop
endfacet
facet normal 0.0 -5.063033325924948e-13 1.0
  outer loop
    vertex 154.97068197740862 115.12503299999733 5.300000190779923
    vertex 149.97068007005998 120.12503299999734 5.300000190782453
    vertex 150.9739092112953 105.24607334423563 5.300000190774922
  endloop
endfacet
facet normal 0.0 -5.063033325924948e-13 1.0
  outer loop
    vertex 154.97068197740862 115.12503299999733 5.300000190779923
    vertex 150.9739092112953 105.24607334423563 5.300000190774922
    vertex 150.9739092112953 40.14757404613993 5.300000190741961
  endloop
endfacet
facet normal 0.0 -5.063033325924948e-13 1.0
  outer loop
    vertex 154.97068197740862 115.12503299999733 5.300000190779923
    vertex 150.9739092112953 40.14757404613993 5.300000190741961
    vertex 154.97068197740862 26.12503299999735 5.300000190734862
  endloop
endfacet
facet normal 0.0 -5.063033325924948e-13 1.0
  outer loop
    vertex 154.97068197740862 26.12503299999735 5.300000190734862
    vertex 150.9739092112953 40.14757404613993 5.300000190741961
    vertex 150.9706819774086 30.125032999997355 5.300000190736886
  endloop
endfacet
facet normal 0.0 -5.063033325924948e-13 1.0
  outer loop
    vertex 135.97068197740862 75.12503299999736 5.300000190759671
    vertex 110.9706819774086 75.12503299999736 5.300000190759671
    vertex 123.4706819774086 61.54828129101298 5.300000190752796
  endloop
endfacet
facet normal 0.0 -5.063033325924948e-13 1.0
  outer loop
    vertex 123.4706819774086 61.54828129101298 5.300000190752796
    vertex 110.9706819774086 75.12503299999736 5.300000190759671
    vertex 110.9706819774086 65.12503299999734 5.300000190754607
  endloop
endfacet
facet normal 0.0 -5.063033325924948e-13 1.0
  outer loop
    vertex 123.4706819774086 61.54828129101298 5.300000190752796
    vertex 110.9706819774086 65.12503299999734 5.300000190754607
    vertex 111.24568922533341 33.02329502392313 5.300000190738356
  endloop
endfacet
facet normal 0.0 -5.063033325924948e-13 1.0
  outer loop
    vertex 111.24568922533341 33.02329502392313 5.300000190738356
    vertex 110.9706819774086 65.12503299999734 5.300000190754607
    vertex 95.97068197740862 30.125032999997355 5.300000190736886
  endloop
endfacet
facet normal 0.0 -5.063033325924948e-13 1.0
  outer loop
    vertex 111.24568922533341 33.02329502392313 5.300000190738356
    vertex 95.97068197740862 30.125032999997355 5.300000190736886
    vertex 97.9706819774086 20.12503299999735 5.300000190731825
  endloop
endfacet
facet normal 0.0 -5.063033325924948e-13 1.0
  outer loop
    vertex 97.9706819774086 20.12503299999735 5.300000190731825
    vertex 95.97068197740862 30.125032999997355 5.300000190736886
    vertex 91.9706819774086 26.12503299999735 5.300000190734862
  endloop
endfacet
facet normal 0.0 -5.063033325924948e-13 1.0
  outer loop
    vertex 95.97068197740862 30.125032999997355 5.300000190736886
    vertex 95.96745665087052 40.14757404613993 5.300000190741961
    vertex 91.9706819774086 26.12503299999735 5.300000190734862
  endloop
endfacet
facet normal 0.0 -5.063033325924948e-13 1.0
  outer loop
    vertex 95.96745665087052 40.14757404613993 5.300000190741961
    vertex 91.9706819774086 115.12503299999733 5.300000190779923
    vertex 91.9706819774086 26.12503299999735 5.300000190734862
  endloop
endfacet
facet normal 0.0 -5.063033325924948e-13 1.0
  outer loop
    vertex 95.96745665087052 105.24607334423563 5.300000190774922
    vertex 91.9706819774086 115.12503299999733 5.300000190779923
    vertex 95.96745665087052 40.14757404613993 5.300000190741961
  endloop
endfacet
facet normal 0.0 -5.063033325924948e-13 1.0
  outer loop
    vertex 148.97068197740862 20.12503299999735 5.300000190731825
    vertex 135.69567282213518 33.02329502392313 5.300000190738356
    vertex 97.9706819774086 20.12503299999735 5.300000190731825
  endloop
endfacet
facet normal 0.0 -5.063033325924948e-13 1.0
  outer loop
    vertex 135.69567282213518 33.02329502392313 5.300000190738356
    vertex 111.24568922533341 33.02329502392313 5.300000190738356
    vertex 97.9706819774086 20.12503299999735 5.300000190731825
  endloop
endfacet
facet normal 1.0 0.0 0.0
  outer loop
    vertex 154.97068197740862 26.125033000000037 0.0
    vertex 154.97068197740862 115.12503300000004 4.506094941625349e-11
    vertex 154.97068197740862 26.12503299999735 5.300000190734862
  endloop
endfacet
facet normal 1.0 0.0 0.0
  outer loop
    vertex 154.97068197740862 26.12503299999735 5.300000190734862
    vertex 154.97068197740862 115.12503300000004 4.506094941625349e-11
    vertex 154.97068197740862 115.12503299999733 5.300000190779923
  endloop
endfacet
facet normal 0.0 5.063033325924948e-13 -1.0
  outer loop
    vertex 154.97068197740862 26.125033000000037 0.0
    vertex 150.9706819774086 40.17186222363285 7.111955468985797e-12
    vertex 154.97068197740862 115.12503300000004 4.506094941625349e-11
  endloop
endfacet
facet normal 0.0 5.063033325924948e-13 -1.0
  outer loop
    vertex 154.97068197740862 26.125033000000037 0.0
    vertex 153.25639517320937 24.41074619580082 -8.699596598660264e-13
    vertex 150.9706819774086 40.17186222363285 7.111955468985797e-12
  endloop
endfacet
facet normal 0.0 5.063033325924948e-13 -1.0
  outer loop
    vertex 153.25639517320937 24.41074619580082 -8.699596598660264e-13
    vertex 150.9706819774086 30.12503300000004 2.0233259512281165e-12
    vertex 150.9706819774086 40.17186222363285 7.111955468985797e-12
  endloop
endfacet
facet normal 0.0 5.063033325924948e-13 -1.0
  outer loop
    vertex 154.97068197740862 115.12503300000004 4.506094941625349e-11
    vertex 150.9706819774086 40.17186222363285 7.111955468985797e-12
    vertex 149.67068083299944 92.16818867016605 3.3437752566811696e-11
  endloop
endfacet
facet normal 0.0 5.063033325924948e-13 -1.0
  outer loop
    vertex 150.9706819774086 40.17186222363285 7.111955468985797e-12
    vertex 149.67068083299944 49.961956599243194 1.2066636578822453e-11
    vertex 149.67068083299944 92.16818867016605 3.3437752566811696e-11
  endloop
endfacet
facet normal 0.0 5.063033325924948e-13 -1.0
  outer loop
    vertex 149.67068083299944 49.961956599243194 1.2066636578822453e-11
    vertex 149.55377943529436 92.16818867016605 3.3437752566811696e-11
    vertex 149.67068083299944 92.16818867016605 3.3437752566811696e-11
  endloop
endfacet
facet normal 0.0 5.063033325924948e-13 -1.0
  outer loop
    vertex 149.67068083299944 49.961956599243194 1.2066636578822453e-11
    vertex 149.55377943529436 49.961956599243194 1.2066636578822453e-11
    vertex 149.55377943529436 92.16818867016605 3.3437752566811696e-11
  endloop
endfacet
facet normal 0.0 5.063033325924948e-13 -1.0
  outer loop
    vertex 154.97068197740862 115.12503300000004 4.506094941625349e-11
    vertex 149.67068083299944 92.16818867016605 3.3437752566811696e-11
    vertex 150.9706819774086 105.21370945263675 4.0042819060559505e-11
  endloop
endfacet
facet normal 0.0 5.063033325924948e-13 -1.0
  outer loop
    vertex 154.97068197740862 115.12503300000004 4.506094941625349e-11
    vertex 150.9706819774086 105.21370945263675 4.0042819060559505e-11
    vertex 150.9706819774086 115.12503300000004 4.506094941625349e-11
  endloop
endfacet
facet normal 0.0 5.063033325924948e-13 -1.0
  outer loop
    vertex 154.97068197740862 115.12503300000004 4.506094941625349e-11
    vertex 150.9706819774086 115.12503300000004 4.506094941625349e-11
    vertex 149.97068007005998 120.12503300000003 4.759045935109896e-11
  endloop
endfacet
facet normal 0.0 5.063033325924948e-13 -1.0
  outer loop
    vertex 150.9706819774086 115.12503300000004 4.506094941625349e-11
    vertex 145.97068197740862 120.12503300000003 4.759045935109896e-11
    vertex 149.97068007005998 120.12503300000003 4.759045935109896e-11
  endloop
endfacet
facet normal 0.0 5.063033325924948e-13 -1.0
  outer loop
    vertex 150.9706819774086 115.12503300000004 4.506094941625349e-11
    vertex 140.3456819774086 115.12503300000004 4.506094941625349e-11
    vertex 145.97068197740862 120.12503300000003 4.759045935109896e-11
  endloop
endfacet
facet normal -0.7071067811865476 -0.7071067811865476 -3.5801051981350113e-13
  outer loop
    vertex 97.9706819774086 20.12503299999735 5.300000190731825
    vertex 93.68496878160784 24.41074619579864 4.300000190733993
    vertex 97.9706819774086 20.12503299999786 4.300000190731823
  endloop
endfacet
facet normal -0.7071067811865476 -0.7071067811865476 -3.5801051981350113e-13
  outer loop
    vertex 97.9706819774086 20.12503299999735 5.300000190731825
    vertex 91.9706819774086 26.12503299999735 5.300000190734862
    vertex 93.68496878160784 24.41074619579864 4.300000190733993
  endloop
endfacet
facet normal -0.7071067811865476 -0.7071067811865476 -3.5801051981350113e-13
  outer loop
    vertex 93.68496878160784 24.41074619579864 4.300000190733993
    vertex 91.9706819774086 26.12503299999735 5.300000190734862
    vertex 91.9706819774086 26.125033000000037 0.0
  endloop
endfacet
facet normal -0.7071067811865476 -0.7071067811865476 -3.5801051981350113e-13
  outer loop
    vertex 93.68496878160784 24.41074619579864 4.300000190733993
    vertex 91.9706819774086 26.125033000000037 0.0
    vertex 93.68496878160784 24.41074619580082 -8.699596598660264e-13
  endloop
endfacet
facet normal 0.0 5.063033325924948e-13 -1.0
  outer loop
    vertex 153.25639517320937 24.41074619579864 4.300000190733993
    vertex 148.97068197740862 20.12503299999786 4.300000190731823
    vertex 150.9706819774086 30.125032999997863 4.3000001907368866
  endloop
endfacet
facet normal 0.0 5.063033325924948e-13 -1.0
  outer loop
    vertex 150.9706819774086 30.125032999997863 4.3000001907368866
    vertex 148.97068197740862 20.12503299999786 4.300000190731823
    vertex 135.69567282213518 33.02329502392364 4.300000190738355
  endloop
endfacet
facet normal 0.0 5.063033325924948e-13 -1.0
  outer loop
    vertex 150.9706819774086 30.125032999997863 4.3000001907368866
    vertex 135.69567282213518 33.02329502392364 4.300000190738355
    vertex 135.97068197740862 65.12503299999786 4.3000001907546075
  endloop
endfacet
facet normal 0.0 5.063033325924948e-13 -1.0
  outer loop
    vertex 135.97068197740862 65.12503299999786 4.3000001907546075
    vertex 135.69567282213518 33.02329502392364 4.300000190738355
    vertex 123.4706819774086 61.54828129101349 4.3000001907527965
  endloop
endfacet
facet normal 0.0 5.063033325924948e-13 -1.0
  outer loop
    vertex 135.97068197740862 65.12503299999786 4.3000001907546075
    vertex 123.4706819774086 61.54828129101349 4.3000001907527965
    vertex 135.97068197740862 75.12503299999786 4.300000190759671
  endloop
endfacet
facet normal 0.0 5.063033325924948e-13 -1.0
  outer loop
    vertex 135.97068197740862 75.12503299999786 4.300000190759671
    vertex 123.4706819774086 61.54828129101349 4.3000001907527965
    vertex 110.9706819774086 75.12503299999786 4.300000190759671
  endloop
endfacet
facet normal 0.0 5.063033325924948e-13 -1.0
  outer loop
    vertex 135.97068197740862 75.12503299999786 4.300000190759671
    vertex 110.9706819774086 75.12503299999786 4.300000190759671
    vertex 131.90818197740862 107.62503299999787 4.3000001907761245
  endloop
endfacet
facet normal 0.0 5.063033325924948e-13 -1.0
  outer loop
    vertex 131.90818197740862 107.62503299999787 4.3000001907761245
    vertex 110.9706819774086 75.12503299999786 4.300000190759671
    vertex 115.0331819774086 107.62503299999787 4.3000001907761245
  endloop
endfacet
facet normal 0.0 5.063033325924948e-13 -1.0
  outer loop
    vertex 115.0331819774086 107.62503299999787 4.3000001907761245
    vertex 110.9706819774086 75.12503299999786 4.300000190759671
    vertex 95.97068197740862 105.21370945263459 4.300000190774904
  endloop
endfacet
facet normal 0.0 5.063033325924948e-13 -1.0
  outer loop
    vertex 115.0331819774086 107.62503299999787 4.3000001907761245
    vertex 95.97068197740862 105.21370945263459 4.300000190774904
    vertex 106.5956819774086 115.12503299999787 4.300000190779922
  endloop
endfacet
facet normal 0.0 5.063033325924948e-13 -1.0
  outer loop
    vertex 106.5956819774086 115.12503299999787 4.300000190779922
    vertex 95.97068197740862 105.21370945263459 4.300000190774904
    vertex 95.97068197740862 115.12503299999787 4.300000190779922
  endloop
endfacet
facet normal 0.0 5.063033325924948e-13 -1.0
  outer loop
    vertex 148.97068197740862 20.12503299999786 4.300000190731823
    vertex 97.9706819774086 20.12503299999786 4.300000190731823
    vertex 135.69567282213518 33.02329502392364 4.300000190738355
  endloop
endfacet
facet normal 0.0 5.063033325924948e-13 -1.0
  outer loop
    vertex 135.69567282213518 33.02329502392364 4.300000190738355
    vertex 97.9706819774086 20.12503299999786 4.300000190731823
    vertex 111.24568922533341 33.02329502392364 4.300000190738355
  endloop
endfacet
facet normal 0.0 5.063033325924948e-13 -1.0
  outer loop
    vertex 111.24568922533341 33.02329502392364 4.300000190738355
    vertex 97.9706819774086 20.12503299999786 4.300000190731823
    vertex 95.97068197740862 30.125032999997863 4.3000001907368866
  endloop
endfacet
facet normal 0.0 5.063033325924948e-13 -1.0
  outer loop
    vertex 111.24568922533341 33.02329502392364 4.300000190738355
    vertex 95.97068197740862 30.125032999997863 4.3000001907368866
    vertex 110.9706819774086 65.12503299999786 4.3000001907546075
  endloop
endfacet
facet normal 0.0 5.063033325924948e-13 -1.0
  outer loop
    vertex 97.9706819774086 20.12503299999786 4.300000190731823
    vertex 93.68496878160784 24.41074619579864 4.300000190733993
    vertex 95.97068197740862 30.125032999997863 4.3000001907368866
  endloop
endfacet
facet normal 0.0 5.063033325924948e-13 -1.0
  outer loop
    vertex 123.4706819774086 61.54828129101349 4.3000001907527965
    vertex 111.24568922533341 33.02329502392364 4.300000190738355
    vertex 110.9706819774086 65.12503299999786 4.3000001907546075
  endloop
endfacet
facet normal 0.0 5.063033325924948e-13 -1.0
  outer loop
    vertex 123.4706819774086 61.54828129101349 4.3000001907527965
    vertex 110.9706819774086 65.12503299999786 4.3000001907546075
    vertex 110.9706819774086 75.12503299999786 4.300000190759671
  endloop
endfacet
facet normal 0.0 5.063033325924948e-13 -1.0
  outer loop
    vertex 150.9706819774086 105.21370945263459 4.300000190774904
    vertex 135.97068197740862 75.12503299999786 4.300000190759671
    vertex 131.90818197740862 107.62503299999787 4.3000001907761245
  endloop
endfacet
facet normal 0.0 5.063033325924948e-13 -1.0
  outer loop
    vertex 150.9706819774086 105.21370945263459 4.300000190774904
    vertex 131.90818197740862 107.62503299999787 4.3000001907761245
    vertex 140.3456819774086 115.12503299999787 4.300000190779922
  endloop
endfacet
facet normal 0.0 5.063033325924948e-13 -1.0
  outer loop
    vertex 150.9706819774086 105.21370945263459 4.300000190774904
    vertex 140.3456819774086 115.12503299999787 4.300000190779922
    vertex 150.9706819774086 115.12503299999787 4.300000190779922
  endloop
endfacet
facet normal 0.9284767763783385 -0.371390462621335 -1.8803622891825037e-13
  outer loop
    vertex 93.68496878160784 24.41074619580082 -8.699596598660264e-13
    vertex 95.97068197740862 30.12503300000004 2.0233259512281165e-12
    vertex 93.68496878160784 24.41074619579864 4.300000190733993
  endloop
endfacet
facet normal 0.9284767763783385 -0.371390462621335 -1.8798417943401015e-13
  outer loop
    vertex 93.68496878160784 24.41074619579864 4.300000190733993
    vertex 95.97068197740862 30.12503300000004 2.0233259512281165e-12
    vertex 95.97068197740862 30.125032999997863 4.3000001907368866
  endloop
endfacet
facet normal 0.0 5.063033325924948e-13 -1.0
  outer loop
    vertex 95.97068197740862 30.12503300000004 2.0233259512281165e-12
    vertex 93.68496878160784 24.41074619580082 -8.699596598660264e-13
    vertex 95.97068197740862 40.17186222363285 7.111955468985797e-12
  endloop
endfacet
facet normal 0.0 5.063033325924948e-13 -1.0
  outer loop
    vertex 95.97068197740862 40.17186222363285 7.111955468985797e-12
    vertex 93.68496878160784 24.41074619580082 -8.699596598660264e-13
    vertex 91.9706819774086 26.125033000000037 0.0
  endloop
endfacet
facet normal 0.0 5.063033325924948e-13 -1.0
  outer loop
    vertex 95.97068197740862 40.17186222363285 7.111955468985797e-12
    vertex 91.9706819774086 26.125033000000037 0.0
    vertex 91.9706819774086 115.12503300000004 4.506094941625349e-11
  endloop
endfacet
facet normal 0.0 5.063033325924948e-13 -1.0
  outer loop
    vertex 96.97068388475724 120.12503300000003 4.759045935109896e-11
    vertex 95.97068197740862 115.12503300000004 4.506094941625349e-11
    vertex 91.9706819774086 115.12503300000004 4.506094941625349e-11
  endloop
endfacet
facet normal 0.0 5.063033325924948e-13 -1.0
  outer loop
    vertex 95.97068197740862 105.21370945263675 4.0042819060559505e-11
    vertex 91.9706819774086 115.12503300000004 4.506094941625349e-11
    vertex 95.97068197740862 115.12503300000004 4.506094941625349e-11
  endloop
endfacet
facet normal 0.0 5.063033325924948e-13 -1.0
  outer loop
    vertex 97.27068312181778 92.16818867016605 3.3437752566811696e-11
    vertex 91.9706819774086 115.12503300000004 4.506094941625349e-11
    vertex 95.97068197740862 105.21370945263675 4.0042819060559505e-11
  endloop
endfacet
facet normal 0.0 5.063033325924948e-13 -1.0
  outer loop
    vertex 100.9706819774086 120.12503300000003 4.759045935109896e-11
    vertex 95.97068197740862 115.12503300000004 4.506094941625349e-11
    vertex 96.97068388475724 120.12503300000003 4.759045935109896e-11
  endloop
endfacet
facet normal 0.0 5.063033325924948e-13 -1.0
  outer loop
    vertex 106.5956819774086 115.12503300000004 4.506094941625349e-11
    vertex 95.97068197740862 115.12503300000004 4.506094941625349e-11
    vertex 100.9706819774086 120.12503300000003 4.759045935109896e-11
  endloop
endfacet
facet normal 0.0 5.063033325924948e-13 -1.0
  outer loop
    vertex 97.38758833422014 49.961956599243194 1.2066636578822453e-11
    vertex 97.27068312181778 92.16818867016605 3.3437752566811696e-11
    vertex 97.38758833422014 92.16818867016605 3.3437752566811696e-11
  endloop
endfacet
facet normal 0.0 5.063033325924948e-13 -1.0
  outer loop
    vertex 97.38758833422014 49.961956599243194 1.2066636578822453e-11
    vertex 97.27068312181778 49.961956599243194 1.2066636578822453e-11
    vertex 97.27068312181778 92.16818867016605 3.3437752566811696e-11
  endloop
endfacet
facet normal 0.0 5.063033325924948e-13 -1.0
  outer loop
    vertex 97.27068312181778 49.961956599243194 1.2066636578822453e-11
    vertex 95.97068197740862 40.17186222363285 7.111955468985797e-12
    vertex 97.27068312181778 92.16818867016605 3.3437752566811696e-11
  endloop
endfacet
facet normal 0.0 5.063033325924948e-13 -1.0
  outer loop
    vertex 97.27068312181778 92.16818867016605 3.3437752566811696e-11
    vertex 95.97068197740862 40.17186222363285 7.111955468985797e-12
    vertex 91.9706819774086 115.12503300000004 4.506094941625349e-11
  endloop
endfacet
facet normal -0.7071066463166453 0.707106916056424 3.5807874806584237e-13
  outer loop
    vertex 96.97068388475724 120.12503300000003 4.759045935109896e-11
    vertex 91.9706819774086 115.12503300000004 4.506094941625349e-11
    vertex 96.97068388475724 120.12503299999734 5.300000190782453
  endloop
endfacet
facet normal -0.7071066463166453 0.7071069160564242 3.5821506800038947e-13
  outer loop
    vertex 91.9706819774086 115.12503300000004 4.506094941625349e-11
    vertex 91.9706819774086 115.12503299999733 5.300000190779923
    vertex 96.97068388475724 120.12503299999734 5.300000190782453
  endloop
endfacet
facet normal 0.0 1.0 5.063033325924948e-13
  outer loop
    vertex 96.97068388475724 120.12503300000003 4.759045935109896e-11
    vertex 96.97068388475724 120.12503299999734 5.300000190782453
    vertex 100.9706819774086 120.12503299999734 5.300000190782453
  endloop
endfacet
facet normal 0.0 1.0 5.063033325924948e-13
  outer loop
    vertex 96.97068388475724 120.12503300000003 4.759045935109896e-11
    vertex 100.9706819774086 120.12503299999734 5.300000190782453
    vertex 100.9706819774086 120.12503300000003 4.759045935109896e-11
  endloop
endfacet
facet normal 0.7071066463166453 0.707106916056424 3.5794242813129546e-13
  outer loop
    vertex 149.97068007005998 120.12503300000003 4.759045935109896e-11
    vertex 154.97068197740862 115.12503299999733 5.300000190779923
    vertex 154.97068197740862 115.12503300000004 4.506094941625349e-11
  endloop
endfacet
facet normal 0.7071066463166453 0.7071069160564242 3.578742681640221e-13
  outer loop
    vertex 149.97068007005998 120.12503300000003 4.759045935109896e-11
    vertex 149.97068007005998 120.12503299999734 5.300000190782453
    vertex 154.97068197740862 115.12503299999733 5.300000190779923
  endloop
endfacet
facet normal 0.0 1.0 5.063033325924948e-13
  outer loop
    vertex 145.97068197740862 120.12503300000003 4.759045935109896e-11
    vertex 149.97068007005998 120.12503299999734 5.300000190782453
    vertex 149.97068007005998 120.12503300000003 4.759045935109896e-11
  endloop
endfacet
facet normal 0.0 1.0 5.063033325924948e-13
  outer loop
    vertex 145.97068197740862 120.12503300000003 4.759045935109896e-11
    vertex 145.97068197740862 120.12503299999734 5.300000190782453
    vertex 149.97068007005998 120.12503299999734 5.300000190782453
  endloop
endfacet
facet normal 0.6643638388299201 0.7474093186836596 3.784158288602229e-13
  outer loop
    vertex 100.9706819774086 120.12503300000003 4.759045935109896e-11
    vertex 100.9706819774086 120.12503299999734 5.300000190782453
    vertex 106.5956819774086 115.12503299999787 4.300000190779922
  endloop
endfacet
facet normal 0.6643638388299198 0.7474093186836597 3.7649702272018084e-13
  outer loop
    vertex 106.5956819774086 115.12503299999787 4.300000190779922
    vertex 100.9706819774086 120.12503299999734 5.300000190782453
    vertex 115.0331819774086 107.62503299999734 5.3000001907761245
  endloop
endfacet
facet normal 0.6643638388299198 0.7474093186836598 3.7699449097871035e-13
  outer loop
    vertex 106.5956819774086 115.12503299999787 4.300000190779922
    vertex 115.0331819774086 107.62503299999734 5.3000001907761245
    vertex 115.0331819774086 107.62503299999787 4.3000001907761245
  endloop
endfacet
facet normal 0.6643638388299201 0.7474093186836595 3.784158288602228e-13
  outer loop
    vertex 100.9706819774086 120.12503300000003 4.759045935109896e-11
    vertex 106.5956819774086 115.12503299999787 4.300000190779922
    vertex 106.5956819774086 115.12503300000004 4.506094941625349e-11
  endloop
endfacet
facet normal 0.0 1.0 5.063033325924948e-13
  outer loop
    vertex 115.0331819774086 107.62503299999787 4.3000001907761245
    vertex 115.0331819774086 107.62503299999734 5.3000001907761245
    vertex 131.90818197740862 107.62503299999734 5.3000001907761245
  endloop
endfacet
facet normal 0.0 1.0 5.063033325924948e-13
  outer loop
    vertex 115.0331819774086 107.62503299999787 4.3000001907761245
    vertex 131.90818197740862 107.62503299999734 5.3000001907761245
    vertex 131.90818197740862 107.62503299999787 4.3000001907761245
  endloop
endfacet
facet normal -0.6643638388299196 0.7474093186836599 3.78415828860223e-13
  outer loop
    vertex 131.90818197740862 107.62503299999787 4.3000001907761245
    vertex 131.90818197740862 107.62503299999734 5.3000001907761245
    vertex 140.3456819774086 115.12503299999787 4.300000190779922
  endloop
endfacet
facet normal -0.6643638388299199 0.7474093186836597 3.7572950026416407e-13
  outer loop
    vertex 140.3456819774086 115.12503299999787 4.300000190779922
    vertex 131.90818197740862 107.62503299999734 5.3000001907761245
    vertex 145.97068197740862 120.12503299999734 5.300000190782453
  endloop
endfacet
facet normal -0.6643638388299201 0.7474093186836596 3.785296775609429e-13
  outer loop
    vertex 145.97068197740862 120.12503300000003 4.759045935109896e-11
    vertex 140.3456819774086 115.12503299999787 4.300000190779922
    vertex 145.97068197740862 120.12503299999734 5.300000190782453
  endloop
endfacet
facet normal -0.6643638388299201 0.7474093186836595 3.784158288602228e-13
  outer loop
    vertex 145.97068197740862 120.12503300000003 4.759045935109896e-11
    vertex 140.3456819774086 115.12503300000004 4.506094941625349e-11
    vertex 140.3456819774086 115.12503299999787 4.300000190779922
  endloop
endfacet
facet normal 0.0 -1.0 -5.063033325924948e-13
  outer loop
    vertex 106.5956819774086 115.12503300000004 4.506094941625349e-11
    vertex 106.5956819774086 115.12503299999787 4.300000190779922
    vertex 95.97068197740862 115.12503299999787 4.300000190779922
  endloop
endfacet
facet normal 0.0 -1.0 -5.063033325924948e-13
  outer loop
    vertex 106.5956819774086 115.12503300000004 4.506094941625349e-11
    vertex 95.97068197740862 115.12503299999787 4.300000190779922
    vertex 95.97068197740862 115.12503300000004 4.506094941625349e-11
  endloop
endfacet
facet normal 0.9191450459127434 -0.39391926149156664 -1.982191755161234e-13
  outer loop
    vertex 111.24568922533341 33.02329502392313 5.300000190738356
    vertex 123.4706819774086 61.54828129101349 4.3000001907527965
    vertex 123.4706819774086 61.54828129101298 5.300000190752796
  endloop
endfacet
facet normal 0.9191450459127434 -0.3939192614915665 -1.9699571616669215e-13
  outer loop
    vertex 111.24568922533341 33.02329502392364 4.300000190738355
    vertex 123.4706819774086 61.54828129101349 4.3000001907527965
    vertex 111.24568922533341 33.02329502392313 5.300000190738356
  endloop
endfacet
facet normal -0.9191450681653011 -0.3939192095689217 -1.9944260857694643e-13
  outer loop
    vertex 135.69567282213518 33.02329502392313 5.300000190738356
    vertex 123.4706819774086 61.54828129101298 5.300000190752796
    vertex 135.69567282213518 33.02329502392364 4.300000190738355
  endloop
endfacet
facet normal -0.9191450681653013 -0.39391920956892174 -2.0066606795599766e-13
  outer loop
    vertex 135.69567282213518 33.02329502392364 4.300000190738355
    vertex 123.4706819774086 61.54828129101298 5.300000190752796
    vertex 123.4706819774086 61.54828129101349 4.3000001907527965
  endloop
endfacet
facet normal 0.0 1.0 5.063033325924948e-13
  outer loop
    vertex 111.24568922533341 33.02329502392364 4.300000190738355
    vertex 111.24568922533341 33.02329502392313 5.300000190738356
    vertex 135.69567282213518 33.02329502392313 5.300000190738356
  endloop
endfacet
facet normal 0.0 1.0 5.063033325924948e-13
  outer loop
    vertex 111.24568922533341 33.02329502392364 4.300000190738355
    vertex 135.69567282213518 33.02329502392313 5.300000190738356
    vertex 135.69567282213518 33.02329502392364 4.300000190738355
  endloop
endfacet
facet normal 0.0 1.0 5.063033325924948e-13
  outer loop
    vertex 97.27068312181778 92.16818867016605 3.3437752566811696e-11
    vertex 97.27068312181778 92.16818867016582 0.43629693988329127
    vertex 97.38758833422014 92.16818867016605 3.3437752566811696e-11
  endloop
endfacet
facet normal 0.0 -1.0 -5.063033325924948e-13
  outer loop
    vertex 97.38758833422014 49.961956599243194 1.2066636578822453e-11
    vertex 97.27068312181778 49.961956599242974 0.4362969398619202
    vertex 97.27068312181778 49.961956599243194 1.2066636578822453e-11
  endloop
endfacet
facet normal 0.0 -1.0 -5.063033325924948e-13
  outer loop
    vertex 149.67068083299944 49.961956599243194 1.2066636578822453e-11
    vertex 149.67068083299944 49.961956599242974 0.4362969398619202
    vertex 149.55377943529436 49.961956599243194 1.2066636578822453e-11
  endloop
endfacet
facet normal 0.0 1.0 5.063033325924948e-13
  outer loop
    vertex 149.55377943529436 92.16818867016605 3.3437752566811696e-11
    vertex 149.67068083299944 92.16818867016582 0.43629693988329127
    vertex 149.67068083299944 92.16818867016605 3.3437752566811696e-11
  endloop
endfacet
facet normal -1.0 0.0 -0.0
  outer loop
    vertex 91.9706819774086 26.12503299999735 5.300000190734862
    vertex 91.9706819774086 115.12503299999733 5.300000190779923
    vertex 91.9706819774086 26.125033000000037 0.0
  endloop
endfacet
facet normal -1.0 0.0 -0.0
  outer loop
    vertex 91.9706819774086 26.125033000000037 0.0
    vertex 91.9706819774086 115.12503299999733 5.300000190779923
    vertex 91.9706819774086 115.12503300000004 4.506094941625349e-11
  endloop
endfacet
facet normal 0.0 -1.0 -5.063033325924948e-13
  outer loop
    vertex 148.97068197740862 20.12503299999786 4.300000190731823
    vertex 148.97068197740862 20.12503299999735 5.300000190731825
    vertex 97.9706819774086 20.12503299999735 5.300000190731825
  endloop
endfacet
facet normal 0.0 -1.0 -5.063033325924948e-13
  outer loop
    vertex 148.97068197740862 20.12503299999786 4.300000190731823
    vertex 97.9706819774086 20.12503299999735 5.300000190731825
    vertex 97.9706819774086 20.12503299999786 4.300000190731823
  endloop
endfacet
facet normal -0.8949540851752502 -0.4461582515522166 -2.2696206812030925e-13
  outer loop
    vertex 110.9706819774086 75.12503299999736 5.300000190759671
    vertex 95.97068197740862 105.21370945263406 5.300000190774906
    vertex 110.9706819774086 75.12503299999786 4.300000190759671
  endloop
endfacet
facet normal -0.8949540851752502 -0.4461582515522167 -2.2589140962452795e-13
  outer loop
    vertex 110.9706819774086 75.12503299999786 4.300000190759671
    vertex 95.97068197740862 105.21370945263406 5.300000190774906
    vertex 95.97068197740862 105.21370945263459 4.300000190774904
  endloop
endfacet
facet normal -1.0 0.0 -0.0
  outer loop
    vertex 110.9706819774086 65.12503299999734 5.300000190754607
    vertex 110.9706819774086 75.12503299999736 5.300000190759671
    vertex 110.9706819774086 65.12503299999786 4.3000001907546075
  endloop
endfacet
facet normal -1.0 0.0 -0.0
  outer loop
    vertex 110.9706819774086 65.12503299999786 4.3000001907546075
    vertex 110.9706819774086 75.12503299999736 5.300000190759671
    vertex 110.9706819774086 75.12503299999786 4.300000190759671
  endloop
endfacet
facet normal -0.9191450300180579 0.3939192985791677 1.994426536431306e-13
  outer loop
    vertex 95.97068197740862 30.125032999997355 5.300000190736886
    vertex 110.9706819774086 65.12503299999734 5.300000190754607
    vertex 95.97068197740862 30.125032999997863 4.3000001907368866
  endloop
endfacet
facet normal -0.9191450300180579 0.3939192985791677 1.994426536431306e-13
  outer loop
    vertex 95.97068197740862 30.125032999997863 4.3000001907368866
    vertex 110.9706819774086 65.12503299999734 5.300000190754607
    vertex 110.9706819774086 65.12503299999786 4.3000001907546075
  endloop
endfacet
facet normal 0.9191450300180579 0.3939192985791677 1.994426536431306e-13
  outer loop
    vertex 150.9706819774086 30.125032999997355 5.300000190736886
    vertex 135.97068197740862 65.12503299999786 4.3000001907546075
    vertex 135.97068197740862 65.12503299999734 5.300000190754607
  endloop
endfacet
facet normal 0.9191450300180579 0.3939192985791677 1.994426536431306e-13
  outer loop
    vertex 150.9706819774086 30.125032999997863 4.3000001907368866
    vertex 135.97068197740862 65.12503299999786 4.3000001907546075
    vertex 150.9706819774086 30.125032999997355 5.300000190736886
  endloop
endfacet
facet normal 1.0 0.0 0.0
  outer loop
    vertex 135.97068197740862 65.12503299999734 5.300000190754607
    vertex 135.97068197740862 75.12503299999786 4.300000190759671
    vertex 135.97068197740862 75.12503299999736 5.300000190759671
  endloop
endfacet
facet normal 1.0 0.0 0.0
  outer loop
    vertex 135.97068197740862 65.12503299999786 4.3000001907546075
    vertex 135.97068197740862 75.12503299999786 4.300000190759671
    vertex 135.97068197740862 65.12503299999734 5.300000190754607
  endloop
endfacet
facet normal 0.8949540851752502 -0.4461582515522166 -2.2696206812030925e-13
  outer loop
    vertex 135.97068197740862 75.12503299999786 4.300000190759671
    vertex 150.9706819774086 105.21370945263406 5.300000190774906
    vertex 135.97068197740862 75.12503299999736 5.300000190759671
  endloop
endfacet
facet normal 0.8949540851752502 -0.4461582515522167 -2.2589140962452795e-13
  outer loop
    vertex 135.97068197740862 75.12503299999786 4.300000190759671
    vertex 150.9706819774086 105.21370945263459 4.300000190774904
    vertex 150.9706819774086 105.21370945263406 5.300000190774906
  endloop
endfacet
facet normal 0.0 -1.0 -5.063033325924948e-13
  outer loop
    vertex 150.9706819774086 115.12503300000004 4.506094941625349e-11
    vertex 140.3456819774086 115.12503299999787 4.300000190779922
    vertex 140.3456819774086 115.12503300000004 4.506094941625349e-11
  endloop
endfacet
facet normal 0.0 -1.0 -5.063033325924948e-13
  outer loop
    vertex 150.9706819774086 115.12503300000004 4.506094941625349e-11
    vertex 150.9706819774086 115.12503299999787 4.300000190779922
    vertex 140.3456819774086 115.12503299999787 4.300000190779922
  endloop
endfacet
facet normal -1.0 0.0 -0.0
  outer loop
    vertex 150.9706819774086 105.21370945263675 4.0042819060559505e-11
    vertex 150.9706819774086 105.21370945263459 4.300000190774904
    vertex 150.9706819774086 115.12503299999787 4.300000190779922
  endloop
endfacet
facet normal -1.0 0.0 -0.0
  outer loop
    vertex 150.9706819774086 105.21370945263675 4.0042819060559505e-11
    vertex 150.9706819774086 115.12503299999787 4.300000190779922
    vertex 150.9706819774086 115.12503300000004 4.506094941625349e-11
  endloop
endfacet
facet normal -0.99507150025769 0.09916001903443873 5.0464952432383376e-14
  outer loop
    vertex 149.67068083299944 92.16818867016582 0.43629693988329127
    vertex 150.9706819774086 105.21370945263675 4.0042819060559505e-11
    vertex 149.67068083299944 92.16818867016605 3.3437752566811696e-11
  endloop
endfacet
facet normal -0.99507150025769 0.09916001903443872 5.0226453869049985e-14
  outer loop
    vertex 149.67068083299944 92.16818867016582 0.43629693988329127
    vertex 150.9706819774086 105.21370945263459 4.300000190774904
    vertex 150.9706819774086 105.21370945263675 4.0042819060559505e-11
  endloop
endfacet
facet normal -0.99507150025769 0.09916001903443852 5.178821913304605e-14
  outer loop
    vertex 149.67068083299944 92.16818867016582 0.43629693988329127
    vertex 150.9706819774086 105.21370945263406 5.300000190774906
    vertex 150.9706819774086 105.21370945263459 4.300000190774904
  endloop
endfacet
facet normal 0.0 -5.063033325924948e-13 1.0
  outer loop
    vertex 150.9739092112953 105.24607334423563 5.300000190774922
    vertex 150.9706819774086 105.21370945263406 5.300000190774906
    vertex 150.9739092112953 40.14757404613993 5.300000190741961
  endloop
endfacet
facet normal -0.9659131349379219 -4.7908602374309825e-05 0.2588664007923038
  outer loop
    vertex 150.9739092112953 40.14757404613993 5.300000190741961
    vertex 150.9706819774086 105.21370945263406 5.300000190774906
    vertex 150.9706819774086 40.17186222363017 5.287962846465069
  endloop
endfacet
facet normal -0.9660537493014839 -4.781139430762899e-05 0.25834115269274516
  outer loop
    vertex 150.9706819774086 40.17186222363017 5.287962846465069
    vertex 150.9706819774086 105.21370945263406 5.300000190774906
    vertex 149.67068083299944 92.16818867016582 0.43629693988329127
  endloop
endfacet
facet normal -0.9659257674182676 -1.3104729373614355e-13 0.25881926481123996
  outer loop
    vertex 150.9706819774086 40.17186222363017 5.287962846465069
    vertex 149.67068083299944 92.16818867016582 0.43629693988329127
    vertex 149.67068083299944 49.961956599242974 0.4362969398619202
  endloop
endfacet
facet normal -0.9659280484724618 -1.3103674607560774e-13 0.25881075165877776
  outer loop
    vertex 149.67068083299944 49.961956599242974 0.4362969398619202
    vertex 149.67068083299944 92.16818867016582 0.43629693988329127
    vertex 149.55377943529436 49.961956599243194 1.2066636578822453e-11
  endloop
endfacet
facet normal -0.9659280484724618 -1.3103674607560774e-13 0.25881075165877776
  outer loop
    vertex 149.55377943529436 49.961956599243194 1.2066636578822453e-11
    vertex 149.67068083299944 92.16818867016582 0.43629693988329127
    vertex 149.55377943529436 92.16818867016605 3.3437752566811696e-11
  endloop
endfacet
facet normal -0.9912986558390732 -0.13163196774206168 -6.618596336449897e-14
  outer loop
    vertex 150.9706819774086 40.17186222363285 7.111955468985797e-12
    vertex 149.67068083299944 49.961956599242974 0.4362969398619202
    vertex 149.67068083299944 49.961956599243194 1.2066636578822453e-11
  endloop
endfacet
facet normal -0.9912986558390732 -0.13163196774206168 -6.667074140931003e-14
  outer loop
    vertex 150.9706819774086 40.17186222363017 5.287962846465069
    vertex 149.67068083299944 49.961956599242974 0.4362969398619202
    vertex 150.9706819774086 40.17186222363285 7.111955468985797e-12
  endloop
endfacet
facet normal -0.9657317997440054 0.0003109632950313202 0.2595418930828578
  outer loop
    vertex 150.9706819774086 30.125032999997355 5.300000190736886
    vertex 150.9739092112953 40.14757404613993 5.300000190741961
    vertex 150.9706819774086 40.17186222363017 5.287962846465069
  endloop
endfacet
facet normal -1.0 0.0 -0.0
  outer loop
    vertex 150.9706819774086 30.125032999997355 5.300000190736886
    vertex 150.9706819774086 40.17186222363017 5.287962846465069
    vertex 150.9706819774086 30.125032999997863 4.3000001907368866
  endloop
endfacet
facet normal -1.0 0.0 -0.0
  outer loop
    vertex 150.9706819774086 30.125032999997863 4.3000001907368866
    vertex 150.9706819774086 40.17186222363017 5.287962846465069
    vertex 150.9706819774086 40.17186222363285 7.111955468985797e-12
  endloop
endfacet
facet normal -1.0 0.0 -0.0
  outer loop
    vertex 150.9706819774086 30.125032999997863 4.3000001907368866
    vertex 150.9706819774086 40.17186222363285 7.111955468985797e-12
    vertex 150.9706819774086 30.12503300000004 2.0233259512281165e-12
  endloop
endfacet
facet normal -0.9284767763783385 -0.371390462621335 -1.8798417943401015e-13
  outer loop
    vertex 153.25639517320937 24.41074619579864 4.300000190733993
    vertex 150.9706819774086 30.125032999997863 4.3000001907368866
    vertex 153.25639517320937 24.41074619580082 -8.699596598660264e-13
  endloop
endfacet
facet normal -0.9284767763783385 -0.37139046262133496 -1.8814032788673077e-13
  outer loop
    vertex 153.25639517320937 24.41074619580082 -8.699596598660264e-13
    vertex 150.9706819774086 30.125032999997863 4.3000001907368866
    vertex 150.9706819774086 30.12503300000004 2.0233259512281165e-12
  endloop
endfacet
facet normal 1.0 0.0 0.0
  outer loop
    vertex 95.97068197740862 30.12503300000004 2.0233259512281165e-12
    vertex 95.97068197740862 40.17186222363285 7.111955468985797e-12
    vertex 95.97068197740862 30.125032999997863 4.3000001907368866
  endloop
endfacet
facet normal 1.0 0.0 0.0
  outer loop
    vertex 95.97068197740862 30.125032999997863 4.3000001907368866
    vertex 95.97068197740862 40.17186222363285 7.111955468985797e-12
    vertex 95.97068197740862 40.17186222363017 5.287962846465069
  endloop
endfacet
facet normal 1.0 0.0 0.0
  outer loop
    vertex 95.97068197740862 30.125032999997863 4.3000001907368866
    vertex 95.97068197740862 40.17186222363017 5.287962846465069
    vertex 95.97068197740862 30.125032999997355 5.300000190736886
  endloop
endfacet
facet normal 0.9657702384982786 0.0003107918804485706 0.25939882389745966
  outer loop
    vertex 95.97068197740862 30.125032999997355 5.300000190736886
    vertex 95.97068197740862 40.17186222363017 5.287962846465069
    vertex 95.96745665087052 40.14757404613993 5.300000190741961
  endloop
endfacet
facet normal 0.9912986558390732 -0.13163196774206168 -6.687557423302092e-14
  outer loop
    vertex 95.97068197740862 40.17186222363285 7.111955468985797e-12
    vertex 97.27068312181778 49.961956599243194 1.2066636578822453e-11
    vertex 97.27068312181778 49.961956599242974 0.4362969398619202
  endloop
endfacet
facet normal 0.9912986558390732 -0.13163196774206168 -6.667074140931003e-14
  outer loop
    vertex 95.97068197740862 40.17186222363285 7.111955468985797e-12
    vertex 97.27068312181778 49.961956599242974 0.4362969398619202
    vertex 95.97068197740862 40.17186222363017 5.287962846465069
  endloop
endfacet
facet normal 0.0 -5.063033325924948e-13 1.0
  outer loop
    vertex 95.97068197740862 105.21370945263406 5.300000190774906
    vertex 95.96745665087052 105.24607334423563 5.300000190774922
    vertex 95.96745665087052 40.14757404613993 5.300000190741961
  endloop
endfacet
facet normal 0.965951380983276 -4.788218345293345e-05 0.2587236504144888
  outer loop
    vertex 95.96745665087052 40.14757404613993 5.300000190741961
    vertex 95.97068197740862 40.17186222363017 5.287962846465069
    vertex 95.97068197740862 105.21370945263406 5.300000190774906
  endloop
endfacet
facet normal 0.9660537493014839 -4.781139430762899e-05 0.25834115269274516
  outer loop
    vertex 95.97068197740862 40.17186222363017 5.287962846465069
    vertex 97.27068312181778 92.16818867016582 0.43629693988329127
    vertex 95.97068197740862 105.21370945263406 5.300000190774906
  endloop
endfacet
facet normal 0.9659257674182676 -1.3104729373614355e-13 0.25881926481123996
  outer loop
    vertex 95.97068197740862 40.17186222363017 5.287962846465069
    vertex 97.27068312181778 49.961956599242974 0.4362969398619202
    vertex 97.27068312181778 92.16818867016582 0.43629693988329127
  endloop
endfacet
facet normal 0.9659259371457518 -1.31040358993617e-13 0.25881863137939104
  outer loop
    vertex 97.27068312181778 49.961956599242974 0.4362969398619202
    vertex 97.38758833422014 92.16818867016605 3.3437752566811696e-11
    vertex 97.27068312181778 92.16818867016582 0.43629693988329127
  endloop
endfacet
facet normal 0.9659259371457518 -1.3104035899361697e-13 0.258818631379391
  outer loop
    vertex 97.27068312181778 49.961956599242974 0.4362969398619202
    vertex 97.38758833422014 49.961956599243194 1.2066636578822453e-11
    vertex 97.38758833422014 92.16818867016605 3.3437752566811696e-11
  endloop
endfacet
facet normal 0.99507150025769 0.09916001903443873 5.046495243238338e-14
  outer loop
    vertex 97.27068312181778 92.16818867016605 3.3437752566811696e-11
    vertex 95.97068197740862 105.21370945263675 4.0042819060559505e-11
    vertex 97.27068312181778 92.16818867016582 0.43629693988329127
  endloop
endfacet
facet normal 0.99507150025769 0.09916001903443872 5.0226453869049985e-14
  outer loop
    vertex 97.27068312181778 92.16818867016582 0.43629693988329127
    vertex 95.97068197740862 105.21370945263675 4.0042819060559505e-11
    vertex 95.97068197740862 105.21370945263459 4.300000190774904
  endloop
endfacet
facet normal 0.99507150025769 0.09916001903443852 5.178821913304605e-14
  outer loop
    vertex 97.27068312181778 92.16818867016582 0.43629693988329127
    vertex 95.97068197740862 105.21370945263459 4.300000190774904
    vertex 95.97068197740862 105.21370945263406 5.300000190774906
  endloop
endfacet
facet normal 1.0 0.0 0.0
  outer loop
    vertex 95.97068197740862 105.21370945263459 4.300000190774904
    vertex 95.97068197740862 115.12503300000004 4.506094941625349e-11
    vertex 95.97068197740862 115.12503299999787 4.300000190779922
  endloop
endfacet
facet normal 1.0 0.0 0.0
  outer loop
    vertex 95.97068197740862 105.21370945263675 4.0042819060559505e-11
    vertex 95.97068197740862 115.12503300000004 4.506094941625349e-11
    vertex 95.97068197740862 105.21370945263459 4.300000190774904
  endloop
endfacet
facet normal 0.0 0.0 1.0
  outer loop
    vertex 143.78547482545756 23.875032999999938 17.300000190731826
    vertex 136.28547482545756 21.87503299999994 17.300000190731826
    vertex 143.78547482545756 21.87503299999994 17.300000190731826
  endloop
endfacet
facet normal 0.0 0.0 1.0
  outer loop
    vertex 136.28547482545756 21.87503299999994 17.300000190731826
    vertex 143.78547482545756 23.875032999999938 17.300000190731826
    vertex 136.28547482545756 23.875032999999938 17.300000190731826
  endloop
endfacet
facet normal -1.1102230246251565e-16 1.0 0.0
  outer loop
    vertex 136.28547482545756 23.875032999999938 5.300000190731824
    vertex 143.78547482545756 23.875032999999938 17.300000190731826
    vertex 143.78547482545756 23.875032999999938 5.300000190731824
  endloop
endfacet
facet normal -1.1102230246251565e-16 1.0 0.0
  outer loop
    vertex 143.78547482545756 23.875032999999938 17.300000190731826
    vertex 136.28547482545756 23.875032999999938 5.300000190731824
    vertex 136.28547482545756 23.875032999999938 17.300000190731826
  endloop
endfacet
facet normal 1.1102230246251565e-16 -1.0 0.0
  outer loop
    vertex 136.28547482545756 21.87503299999994 17.300000190731826
    vertex 143.78547482545756 21.87503299999994 5.300000190731824
    vertex 143.78547482545756 21.87503299999994 17.300000190731826
  endloop
endfacet
facet normal 1.1102230246251565e-16 -1.0 0.0
  outer loop
    vertex 143.78547482545756 21.87503299999994 5.300000190731824
    vertex 136.28547482545756 21.87503299999994 17.300000190731826
    vertex 136.28547482545756 21.87503299999994 5.300000190731824
  endloop
endfacet
facet normal -1.0 -1.1102230246251565e-16 0.0
  outer loop
    vertex 136.28547482545756 21.87503299999994 17.300000190731826
    vertex 136.28547482545756 23.875032999999938 5.300000190731824
    vertex 136.28547482545756 21.87503299999994 5.300000190731824
  endloop
endfacet
facet normal -1.0 -1.1102230246251565e-16 0.0
  outer loop
    vertex 136.28547482545756 23.875032999999938 5.300000190731824
    vertex 136.28547482545756 21.87503299999994 17.300000190731826
    vertex 136.28547482545756 23.875032999999938 17.300000190731826
  endloop
endfacet
facet normal 0.0 0.0 1.0
  outer loop
    vertex 145.78547482545756 31.37503299999995 17.300000190731826
    vertex 143.78547482545756 23.875032999999938 17.300000190731826
    vertex 145.78547482545756 23.875032999999938 17.300000190731826
  endloop
endfacet
facet normal 0.0 0.0 1.0
  outer loop
    vertex 143.78547482545756 23.875032999999938 17.300000190731826
    vertex 145.78547482545756 31.37503299999995 17.300000190731826
    vertex 143.78547482545756 31.37503299999995 17.300000190731826
  endloop
endfacet
facet normal 0.0 0.0 1.0
  outer loop
    vertex 145.78547482545756 23.875032999999938 17.300000190731826
    vertex 143.78547482545756 21.87503299999994 17.300000190731826
    vertex 145.78547482545756 21.87503299999994 17.300000190731826
  endloop
endfacet
facet normal 0.0 0.0 1.0
  outer loop
    vertex 143.78547482545756 21.87503299999994 17.300000190731826
    vertex 145.78547482545756 23.875032999999938 17.300000190731826
    vertex 143.78547482545756 23.875032999999938 17.300000190731826
  endloop
endfacet
facet normal -1.1102230246251565e-16 1.0 0.0
  outer loop
    vertex 143.78547482545756 31.37503299999995 5.300000190731824
    vertex 145.78547482545756 31.37503299999995 17.300000190731826
    vertex 145.78547482545756 31.37503299999995 5.300000190731824
  endloop
endfacet
facet normal -1.1102230246251565e-16 1.0 0.0
  outer loop
    vertex 145.78547482545756 31.37503299999995 17.300000190731826
    vertex 143.78547482545756 31.37503299999995 5.300000190731824
    vertex 143.78547482545756 31.37503299999995 17.300000190731826
  endloop
endfacet
facet normal -1.0 -1.1102230246251565e-16 0.0
  outer loop
    vertex 143.78547482545756 23.875032999999938 17.300000190731826
    vertex 143.78547482545756 31.37503299999995 5.300000190731824
    vertex 143.78547482545756 23.875032999999938 5.300000190731824
  endloop
endfacet
facet normal -1.0 -1.1102230246251565e-16 0.0
  outer loop
    vertex 143.78547482545756 31.37503299999995 5.300000190731824
    vertex 143.78547482545756 23.875032999999938 17.300000190731826
    vertex 143.78547482545756 31.37503299999995 17.300000190731826
  endloop
endfacet
facet normal 1.0 1.1102230246251565e-16 0.0
  outer loop
    vertex 145.78547482545756 23.875032999999938 17.300000190731826
    vertex 145.78547482545756 21.87503299999994 5.300000190731824
    vertex 145.78547482545756 23.875032999999938 5.300000190731824
  endloop
endfacet
facet normal 1.0 1.1102230246251565e-16 0.0
  outer loop
    vertex 145.78547482545756 21.87503299999994 5.300000190731824
    vertex 145.78547482545756 23.875032999999938 17.300000190731826
    vertex 145.78547482545756 21.87503299999994 17.300000190731826
  endloop
endfacet
facet normal 1.0 1.1102230246251565e-16 0.0
  outer loop
    vertex 145.78547482545756 31.37503299999995 17.300000190731826
    vertex 145.78547482545756 23.875032999999938 5.300000190731824
    vertex 145.78547482545756 31.37503299999995 5.300000190731824
  endloop
endfacet
facet normal 1.0 1.1102230246251565e-16 0.0
  outer loop
    vertex 145.78547482545756 23.875032999999938 5.300000190731824
    vertex 145.78547482545756 31.37503299999995 17.300000190731826
    vertex 145.78547482545756 23.875032999999938 17.300000190731826
  endloop
endfacet
facet normal 1.1102230246251565e-16 -1.0 0.0
  outer loop
    vertex 143.78547482545756 21.87503299999994 17.300000190731826
    vertex 145.78547482545756 21.87503299999994 5.300000190731824
    vertex 145.78547482545756 21.87503299999994 17.300000190731826
  endloop
endfacet
facet normal 1.1102230246251565e-16 -1.0 0.0
  outer loop
    vertex 145.78547482545756 21.87503299999994 5.300000190731824
    vertex 143.78547482545756 21.87503299999994 17.300000190731826
    vertex 143.78547482545756 21.87503299999994 5.300000190731824
  endloop
endfacet
endsolid walletv1
